<svg width="24" height="27" viewBox="0 0 24 27" fill="none" xmlns="http://www.w3.org/2000/svg">
<path d="M8.2002 21.6614C9.34261 21.6614 10.2498 22.828 10.25 24.2415C10.25 25.6551 9.34273 26.8225 8.2002 26.8225C7.0577 26.8225 6.15039 25.6552 6.15039 24.2415C6.15059 22.828 7.05778 21.6614 8.2002 21.6614ZM8.2002 22.886C7.62448 22.886 7.13867 23.4819 7.13867 24.2424C7.13887 25.0027 7.6246 25.5979 8.2002 25.5979C8.77579 25.5979 9.26156 25.0027 9.26172 24.2424C9.26172 23.4819 8.77591 22.886 8.2002 22.886Z" fill="#2B3043" stroke="#2B3043" stroke-width="0.1"/>
<path d="M18.2002 21.6614C19.3426 21.6614 20.2498 22.828 20.25 24.2415C20.25 25.6551 19.3427 26.8225 18.2002 26.8225C17.0577 26.8225 16.1504 25.6552 16.1504 24.2415C16.1506 22.828 17.0578 21.6614 18.2002 21.6614ZM18.2002 22.886C17.6245 22.886 17.1387 23.4819 17.1387 24.2424C17.1389 25.0027 17.6246 25.5979 18.2002 25.5979C18.7758 25.5979 19.2616 25.0027 19.2617 24.2424C19.2617 23.4819 18.7759 22.886 18.2002 22.886Z" fill="#2B3043" stroke="#2B3043" stroke-width="0.1"/>
<path d="M2.52246 0.100342C3.54406 0.11295 4.44444 0.825018 4.83984 1.88452L4.91211 2.10034V2.10229L5.37207 3.74194L22.666 4.02026H22.6758V4.02124C22.8685 4.04332 23.044 4.14706 23.1699 4.30737L23.1719 4.3103C23.2968 4.4807 23.331 4.71139 23.2686 4.91772L23.2695 4.9187L21.9893 11.1726C21.6966 12.6146 20.6534 13.701 19.3691 13.866H19.3682L8.19531 15.2273L8.00391 15.7312C7.85878 16.2 7.90639 16.7211 8.13184 17.1423C8.35955 17.5681 8.75145 17.8235 9.16797 17.8357H19.543C19.9068 17.8357 20.1768 18.1744 20.1768 18.5583C20.1767 18.9422 19.9067 19.28 19.543 19.28H9.16113C8.31161 19.2502 7.53486 18.7393 7.07617 17.9226C6.61385 17.0925 6.52292 16.0553 6.8291 15.1345L6.83008 15.1316L7.08398 14.447L3.70605 2.56226L3.66895 2.45093C3.47981 1.94374 3.07363 1.6048 2.61719 1.55151L2.51855 1.54468H0.733398C0.369786 1.54443 0.100586 1.20583 0.100586 0.822021C0.100699 0.43831 0.369862 0.100585 0.733398 0.100342H2.52246ZM8.19727 13.7498L19.2109 12.4226L19.2139 12.4216C19.9546 12.353 20.5852 11.7263 20.752 10.8542V10.8523L21.874 5.46265L5.77539 5.18726L8.19727 13.7498Z" fill="#2B3043" stroke="#2B3043" stroke-width="0.2"/>
</svg>
