<svg width="21" height="22" viewBox="0 0 21 22" fill="none" xmlns="http://www.w3.org/2000/svg">
<path fill-rule="evenodd" clip-rule="evenodd" d="M15.129 16.6443C13.56 18.1315 11.4848 19.0364 9.20914 19.0364C4.31642 19.0364 0.350098 14.8533 0.350098 9.6932C0.350098 4.53308 4.31642 0.349976 9.20914 0.349976C14.1018 0.349976 18.0682 4.53308 18.0682 9.6932C18.0682 12.0458 17.2437 14.1953 15.8829 15.8379L20.1928 20.3833C20.4025 20.6045 20.4025 20.963 20.1928 21.1841C19.9832 21.4053 19.6432 21.4053 19.4335 21.1841L15.129 16.6443ZM16.9944 9.6932C16.9944 14.2279 13.5088 17.9039 9.20914 17.9039C4.90948 17.9039 1.42392 14.2279 1.42392 9.6932C1.42392 5.15855 4.90948 1.48249 9.20914 1.48249C13.5088 1.48249 16.9944 5.15855 16.9944 9.6932Z" fill="currentColor" fill-opacity="0.5" stroke="#808080" stroke-opacity="0.5" stroke-width="0.7"/>
</svg>
